<?xml version="1.0" encoding="iso-8859-1"?>
<!-- Generator: Adobe Illustrator 16.0.0, SVG Export Plug-In . SVG Version: 6.00 Build 0)  -->
<!DOCTYPE svg PUBLIC "-//W3C//DTD SVG 1.1//EN" "http://www.w3.org/Graphics/SVG/1.1/DTD/svg11.dtd">
<svg version="1.1" id="Capa_1" xmlns="http://www.w3.org/2000/svg" xmlns:xlink="http://www.w3.org/1999/xlink" x="0px" y="0px"
	 width="475.082px" height="475.081px" viewBox="0 0 475.082 475.081" style="enable-background:new 0 0 475.082 475.081;"
	 xml:space="preserve">
<g>
	<path d="M455.955,169.876c-12.765-26.647-29.793-49.726-51.106-69.234c-21.32-19.508-46.644-35.072-75.951-46.682
		s-59.758-17.416-91.358-17.416c-31.595,0-62.047,5.809-91.359,17.416c-29.314,11.606-54.626,27.17-75.946,46.682
		s-38.354,42.587-51.106,69.234C6.375,196.526,0,224.222,0,252.955c0,31.601,5.708,61.483,17.129,89.654l5.712,13.99l52.817,9.417
		c4.187,15.797,12.801,28.787,25.841,38.972c13.035,10.178,27.928,15.27,44.68,15.27v9.138c0,2.662,0.854,4.853,2.568,6.563
		c1.713,1.711,3.903,2.57,6.567,2.57h18.271c2.663,0,4.853-0.859,6.567-2.57c1.709-1.711,2.568-3.901,2.568-6.563V264.943
		c0-2.666-0.855-4.855-2.568-6.567c-1.715-1.711-3.905-2.566-6.567-2.566h-18.271c-2.667,0-4.854,0.855-6.567,2.566
		c-1.714,1.712-2.568,3.901-2.568,6.567v9.134c-13.518,0-25.887,3.381-37.119,10.14c-11.231,6.752-20.08,15.842-26.552,27.265
		l-19.417-3.429c-5.515-18.09-8.276-36.453-8.276-55.107c0-28.168,8.372-54.719,25.122-79.652
		c16.751-24.934,39.259-44.827,67.524-59.671c28.265-14.845,58.291-22.266,90.078-22.266c31.778,0,61.812,7.421,90.078,22.266
		c28.268,14.844,50.771,34.737,67.526,59.671c16.748,24.934,25.126,51.484,25.126,79.652c0,18.654-2.759,37.018-8.275,55.107
		l-19.421,3.432c-6.478-11.426-15.324-20.509-26.549-27.264c-11.231-6.759-23.609-10.144-37.12-10.144v-9.13
		c0-2.666-0.853-4.856-2.57-6.567c-1.707-1.708-3.897-2.57-6.563-2.57h-18.274c-2.662,0-4.853,0.862-6.563,2.57
		c-1.715,1.711-2.57,3.901-2.57,6.567v164.455c0,2.662,0.855,4.853,2.57,6.563c1.711,1.711,3.901,2.57,6.563,2.57h18.274
		c2.666,0,4.856-0.859,6.563-2.57c1.718-1.711,2.57-3.901,2.57-6.563v-9.138c16.748,0,31.642-5.092,44.68-15.27
		c13.042-10.185,21.652-23.175,25.837-38.972l52.818-9.418l5.715-13.989c11.416-28.171,17.128-58.054,17.128-89.653
		C475.082,224.222,468.709,196.526,455.955,169.876z"/>
</g>
<g>
</g>
<g>
</g>
<g>
</g>
<g>
</g>
<g>
</g>
<g>
</g>
<g>
</g>
<g>
</g>
<g>
</g>
<g>
</g>
<g>
</g>
<g>
</g>
<g>
</g>
<g>
</g>
<g>
</g>
</svg>
