<?xml version="1.0" encoding="iso-8859-1"?>
<!DOCTYPE svg PUBLIC "-//W3C//DTD SVG 20010904//EN" "http://www.w3.org/TR/2001/REC-SVG-20010904/DTD/svg10.dtd">
<svg version="1.0" xmlns="http://www.w3.org/2000/svg" width="475px" height="475px" viewBox="0 0 4750 4750" preserveAspectRatio="xMidYMid meet">
<g id="layer101" fill="#c4c4c4" stroke="none">
 <path d="M1505 4378 c-35 -20 -44 -42 -45 -104 l0 -61 -89 -12 c-145 -18 -238 -57 -359 -149 -113 -86 -209 -221 -247 -347 l-12 -40 -234 -42 c-129 -23 -248 -44 -265 -48 -30 -5 -34 -12 -83 -135 -85 -214 -137 -420 -162 -638 -18 -160 -7 -501 20 -636 34 -165 96 -344 177 -506 250 -497 626 -850 1159 -1084 683 -301 1433 -286 2116 42 642 309 1107 891 1241 1552 21 103 23 142 23 380 0 234 -3 280 -24 395 -29 164 -77 332 -142 496 l-50 128 -47 9 c-26 6 -145 27 -264 48 l-217 38 -22 61 c-93 260 -320 440 -600 476 l-89 12 0 57 c0 32 -3 66 -6 75 -13 34 -58 45 -184 45 -121 0 -122 0 -151 -29 l-29 -29 0 -861 0 -860 24 -28 24 -28 135 0 c130 0 137 1 161 24 23 22 26 32 26 93 l0 68 53 0 c189 0 430 138 552 315 26 37 44 54 54 51 9 -3 51 -10 93 -17 63 -11 77 -16 81 -33 37 -154 58 -276 68 -389 33 -382 -79 -731 -336 -1052 -255 -319 -672 -571 -1082 -654 -306 -63 -653 -50 -928 33 -658 198 -1140 685 -1267 1279 -41 195 -25 504 39 737 l18 65 70 12 c39 7 80 15 92 18 18 4 29 -5 62 -53 119 -175 359 -312 548 -312 l53 0 0 -64 c0 -54 4 -70 24 -93 l24 -28 137 0 137 0 24 28 24 28 0 862 c-1 912 1 880 -47 905 -29 16 -251 15 -278 0z"/>
 </g>

</svg>