<?xml version="1.0" encoding="utf-8"?>
<!-- Generator: Adobe Illustrator 21.1.0, SVG Export Plug-In . SVG Version: 6.00 Build 0)  -->
<svg version="1.1" id="Layer_1" xmlns="http://www.w3.org/2000/svg" xmlns:xlink="http://www.w3.org/1999/xlink" x="0px" y="0px"
	 viewBox="0 0 3354 3015.9" style="enable-background:new 0 0 3354 3015.9;" xml:space="preserve">
<style type="text/css">
	.st0{fill:#FFFFFF;}
</style>
<g transform="scale(17.69974123959226) translate(10, 10)">
	<g id="SvgjsG1010" transform="translate(-2.6910009384155273,103.04600143432617)" xmlns:name="mainText_mainfill">
		<path class="st0" d="M17.3-52.6c3,0,5.3,0.8,7,2.4c1.7,1.6,2.6,3.8,2.6,6.5c0,2.8-0.9,4.9-2.6,6.5s-4,2.4-7,2.4h-6.5v10H4.7v-27.8
			H17.3L17.3-52.6z M15.7-39.5c1.8,0,3.1-0.3,4-1c0.9-0.6,1.3-1.7,1.3-3.2c0-1.4-0.4-2.5-1.3-3.2c-0.8-0.7-2.2-1-4-1h-4.9v8.3h4.9
			V-39.5z M39.4-45.5c1.9,0,3.6,0.4,5.1,1.3c1.5,0.9,2.6,2.2,3.5,3.8c0.9,1.6,1.3,3.6,1.3,5.8c0,0.2,0,0.5,0,1H34.7
			c0.1,1.6,0.5,2.9,1.3,3.8s2,1.3,3.6,1.3c1,0,1.9-0.3,2.8-0.8s1.4-1.1,1.6-1.9h4.9c-1.4,4.5-4.6,6.8-9.4,6.8
			c-1.8,0-3.6-0.4-5.1-1.2c-1.6-0.8-2.8-2-3.8-3.6c-0.9-1.7-1.4-3.6-1.4-5.8c0-2.1,0.5-3.9,1.4-5.6c0.9-1.7,2.2-3,3.8-3.8
			C35.9-45.1,37.6-45.5,39.4-45.5L39.4-45.5z M43.7-37c-0.3-1.6-0.7-2.6-1.5-3.3s-1.7-1-3-1c-1.4,0-2.4,0.4-3.2,1.2
			s-1.2,1.8-1.4,3.1H43.7z M56.5-45l3.7,13.7h0.1L63.7-45H69l3.4,13.7h0.1L76.2-45h5.7l-6.4,20.2h-5.7l-3.6-13.5h-0.1l-3.4,13.5H57
			L50.6-45L56.5-45L56.5-45z M105.5-52.6v5.1h-8.3v22.7H91v-22.7h-8.3v-5.1H105.5L105.5-52.6z M113.6-45v11.4c0,1.6,0.2,2.8,0.7,3.6
			c0.5,0.9,1.4,1.3,2.8,1.3c1.5,0,2.6-0.5,3.3-1.4c0.7-0.9,1-2.4,1-4.4V-45h5.5v20.2h-5.3v-2.8h-0.1c-1.4,2.2-3.4,3.4-6.2,3.4
			c-2.6,0-4.5-0.7-5.6-2s-1.7-3.4-1.7-6.2V-45H113.6L113.6-45z M136.7-52.6v10.1h0.1c0.6-0.9,1.4-1.6,2.6-2.2
			c1.1-0.5,2.4-0.8,3.8-0.8c2.5,0,4.5,1,6,3s2.3,4.5,2.3,7.6c0,3.1-0.8,5.7-2.3,7.7s-3.6,3-6.1,3c-3.3,0-5.5-1-6.6-3.1h-0.1v2.6
			h-5.3v-27.9H136.7L136.7-52.6z M136.6-34.9c0,2,0.4,3.5,1.3,4.7s2,1.8,3.4,1.8s2.5-0.6,3.4-1.7s1.3-2.7,1.3-4.7s-0.4-3.5-1.3-4.7
			s-2-1.8-3.5-1.8s-2.6,0.6-3.4,1.8C137-38.3,136.6-36.8,136.6-34.9L136.6-34.9z M164.4-45.5c1.9,0,3.6,0.4,5.1,1.3
			c1.5,0.9,2.6,2.2,3.5,3.8c0.8,1.7,1.3,3.6,1.3,5.8c0,0.2,0,0.5,0,1h-14.5c0.1,1.6,0.5,2.9,1.3,3.8s2,1.3,3.6,1.3
			c1,0,1.9-0.3,2.8-0.8s1.4-1.1,1.6-1.9h4.9c-1.4,4.5-4.6,6.8-9.4,6.8c-1.8,0-3.6-0.4-5.1-1.2s-2.8-2-3.8-3.6s-1.4-3.6-1.4-5.8
			c0-2.1,0.5-3.9,1.4-5.6c0.9-1.7,2.2-3,3.8-3.8S162.5-45.5,164.4-45.5L164.4-45.5z M168.6-37c-0.3-1.5-0.7-2.6-1.4-3.3
			c-0.7-0.7-1.7-1-3-1c-1.4,0-2.4,0.4-3.2,1.2s-1.2,1.8-1.4,3.1H168.6z"/>
	</g>
</g>
</svg>
